<?xml version="1.0" standalone="no"?>
<!DOCTYPE svg PUBLIC "-//W3C//DTD SVG 20010904//EN"
 "http://www.w3.org/TR/2001/REC-SVG-20010904/DTD/svg10.dtd">
<svg version="1.0" xmlns="http://www.w3.org/2000/svg"
 width="238.000000pt" height="238.000000pt" viewBox="0 0 238.000000 238.000000"
 preserveAspectRatio="xMidYMid meet">
<metadata>
Created by potrace 1.14, written by Peter Selinger 2001-2017
</metadata>
<g transform="translate(0.000000,238.000000) scale(0.100000,-0.100000)"
fill="#000000" stroke="none">
<path d="M551 1776 c-5 -6 -16 -38 -24 -71 -49 -189 -123 -469 -207 -783 -18
-67 -31 -125 -28 -128 11 -10 80 -7 87 4 4 7 18 59 31 117 12 58 28 106 34
106 6 1 94 2 196 3 117 1 184 5 183 11 0 6 -24 97 -53 204 -41 155 -49 196
-38 202 39 25 207 3 209 -27 0 -8 1 -45 2 -84 l0 -70 44 0 c27 0 43 5 44 13 1
6 1 54 0 106 -1 105 2 100 -81 132 -57 23 -193 32 -236 16 -18 -6 -21 -1 -32
45 -6 29 -14 60 -16 68 -8 27 -36 131 -36 134 0 10 -72 11 -79 2z m45 -152 c2
-16 10 -53 16 -82 10 -47 9 -55 -9 -80 -47 -64 -52 -85 -54 -224 l-2 -134 -43
0 c-46 0 -51 7 -35 49 5 13 12 37 15 53 14 71 26 127 46 205 12 46 23 91 25
99 29 162 31 169 41 114z m68 -306 c9 -47 13 -65 31 -132 19 -70 16 -82 -21
-81 l-29 0 -2 123 c-2 117 8 159 21 90z"/>
<path d="M1895 1587 c-20 -56 -41 -115 -47 -130 -6 -15 -9 -29 -7 -31 2 -2 59
23 126 55 l123 58 -21 35 c-23 39 -66 79 -109 101 l-28 14 -37 -102z m123 29
c32 -28 55 -73 42 -81 -9 -6 -12 -1 -24 38 -2 7 -16 19 -32 27 -41 20 -64 41
-64 57 0 15 35 -3 78 -41z m-73 4 c3 -6 23 -19 42 -29 41 -21 53 -66 21 -75
-11 -2 -18 1 -17 7 3 27 -2 37 -21 37 -25 0 -27 -35 -2 -45 13 -5 5 -13 -38
-35 -30 -15 -57 -26 -59 -24 -6 6 53 174 61 174 4 0 10 -5 13 -10z"/>
<path d="M1910 1520 c0 -5 5 -10 11 -10 5 0 7 5 4 10 -3 6 -8 10 -11 10 -2 0
-4 -4 -4 -10z"/>
<path d="M1695 1613 c-22 -9 -44 -21 -50 -25 -5 -5 -22 -17 -37 -28 -72 -55
-102 -205 -60 -302 43 -98 158 -170 261 -162 92 7 196 86 225 172 24 69 20
161 -10 210 -2 3 -164 -70 -196 -88 -24 -13 -24 -13 19 112 20 60 33 111 29
115 -16 16 -141 13 -181 -4z m163 -8 c15 -15 -43 -21 -91 -9 -19 4 -33 1 -46
-10 -16 -15 -19 -15 -24 -2 -5 11 2 18 21 22 15 3 32 7 37 9 15 4 97 -4 103
-10z m-197 -49 c-18 -5 -34 -21 -44 -41 -9 -19 -25 -39 -37 -45 -25 -14 -25
-6 1 37 27 44 90 88 101 70 5 -8 -2 -15 -21 -21z m169 17 c25 6 25 5 -4 -79
-41 -117 -35 -115 -77 -25 -21 45 -36 88 -33 96 8 19 33 23 67 12 15 -5 36 -7
47 -4z m-97 -107 c21 -43 37 -80 35 -82 -2 -2 -40 10 -84 27 -43 17 -85 31
-92 32 -7 0 -2 11 13 27 14 14 25 31 25 37 0 15 41 44 55 40 5 -1 27 -38 48
-81z m303 -61 c8 -54 -3 -118 -18 -109 -6 4 -8 27 -4 64 5 45 3 60 -9 70 -12
10 -13 15 -3 21 19 12 26 2 34 -46z m-474 -49 c-8 -26 -7 -39 5 -56 17 -24 9
-40 -10 -21 -12 12 -20 138 -9 155 12 20 23 -43 14 -78z m432 62 c8 -12 12
-26 9 -32 -4 -6 -8 -6 -11 2 -5 16 -39 15 -45 -2 -6 -14 10 -36 26 -36 5 0 4
7 -3 15 -8 10 -9 15 -2 15 11 0 35 -70 27 -78 -5 -5 -106 29 -119 40 -6 4 -18
8 -27 8 -43 0 -25 23 43 55 40 18 76 34 80 34 4 1 14 -9 22 -21z m-314 -22
l85 -33 -33 -17 c-18 -9 -41 -15 -50 -12 -20 7 -36 -3 -45 -26 -7 -21 -56 -25
-59 -5 -6 43 -1 127 7 127 6 -1 48 -16 95 -34z m90 -59 c0 -1 -13 -40 -30 -87
-16 -47 -30 -87 -30 -89 0 -3 -10 5 -22 17 -13 11 -35 25 -50 31 -22 8 -28 17
-28 40 0 25 5 30 33 36 17 4 43 15 57 25 31 21 70 37 70 27z m111 -16 c30 -10
68 -24 84 -31 l30 -12 -21 -17 c-12 -9 -25 -27 -28 -39 -4 -12 -20 -29 -36
-37 -27 -14 -29 -14 -38 13 -6 15 -22 53 -36 85 -14 31 -22 57 -17 57 4 0 32
-9 62 -19z m-74 -8 c3 -10 16 -40 29 -67 13 -28 24 -58 24 -68 0 -25 -37 -43
-64 -30 -11 5 -34 8 -49 6 -16 -1 -27 0 -25 4 2 4 17 44 33 89 30 84 41 97 52
66z m-127 3 c0 -3 -4 -8 -10 -11 -5 -3 -10 -1 -10 4 0 6 5 11 10 11 6 0 10 -2
10 -4z m340 -54 c0 -14 -53 -80 -83 -103 -39 -29 -46 -16 -11 20 16 16 39 43
52 60 22 30 42 40 42 23z m-424 -25 c3 -21 28 -47 47 -47 13 0 36 -21 50 -47
5 -7 0 -9 -15 -5 -28 7 -108 87 -108 108 0 20 22 13 26 -9z m294 -97 c0 -23
-111 -38 -155 -21 -19 8 -19 8 1 19 12 6 24 8 28 5 19 -19 75 -18 94 1 15 15
32 13 32 -4z"/>
<path d="M1756 1527 c-16 -12 -16 -14 3 -31 19 -17 20 -17 30 2 15 27 -8 47
-33 29z m24 -11 c0 -3 -4 -8 -10 -11 -5 -3 -10 -1 -10 4 0 6 5 11 10 11 6 0
10 -2 10 -4z"/>
<path d="M1775 1460 c-3 -5 -1 -10 4 -10 6 0 11 5 11 10 0 6 -2 10 -4 10 -3 0
-8 -4 -11 -10z"/>
<path d="M1660 1470 c0 -5 5 -10 11 -10 5 0 7 5 4 10 -3 6 -8 10 -11 10 -2 0
-4 -4 -4 -10z"/>
<path d="M1905 1380 c3 -5 8 -10 11 -10 2 0 4 5 4 10 0 6 -5 10 -11 10 -5 0
-7 -4 -4 -10z"/>
<path d="M1855 1300 c-3 -5 1 -10 10 -10 9 0 13 5 10 10 -3 6 -8 10 -10 10 -2
0 -7 -4 -10 -10z"/>
<path d="M1886 1281 c-10 -16 5 -42 23 -39 21 4 21 42 -1 46 -9 2 -19 -1 -22
-7z m29 -11 c3 -5 1 -10 -4 -10 -6 0 -11 5 -11 10 0 6 2 10 4 10 3 0 8 -4 11
-10z"/>
<path d="M1785 1270 c3 -5 8 -10 11 -10 2 0 4 5 4 10 0 6 -5 10 -11 10 -5 0
-7 -4 -4 -10z"/>
<path d="M1770 1211 c0 -24 13 -33 35 -25 23 9 14 38 -13 42 -16 3 -22 -2 -22
-17z m35 -1 c3 -5 1 -10 -4 -10 -6 0 -11 5 -11 10 0 6 2 10 4 10 3 0 8 -4 11
-10z"/>
<path d="M864 1008 c-9 -14 2 -21 33 -23 28 -1 28 -1 28 -75 1 -62 4 -75 17
-78 15 -3 18 8 20 75 3 76 4 78 28 78 15 0 26 6 28 16 3 14 -8 17 -73 16 -42
0 -78 -4 -81 -9z"/>
<path d="M1063 926 c-36 -78 -40 -92 -25 -95 9 -2 18 2 20 8 9 26 31 37 70 33
30 -3 43 -9 47 -23 6 -18 46 -28 44 -11 -2 25 -87 176 -99 178 -11 1 -29 -28
-57 -90z m74 9 c11 -35 11 -35 -19 -35 -25 0 -29 3 -23 18 4 9 10 25 12 35 8
27 19 20 30 -18z"/>
<path d="M1245 1012 c-3 -3 -5 -45 -5 -94 l0 -88 65 0 c52 0 69 4 85 20 24 24
24 30 6 55 -10 13 -11 25 -5 37 11 20 -5 67 -23 69 -38 5 -119 5 -123 1z m112
-36 c15 -15 -9 -36 -42 -36 -31 0 -35 3 -35 26 0 24 3 25 36 21 19 -3 38 -7
41 -11z m8 -91 c0 -16 -8 -21 -42 -23 -40 -3 -43 -2 -43 23 0 25 3 26 43 23
34 -2 42 -7 42 -23z"/>
<path d="M1446 1011 c-1 -3 -2 -44 -2 -91 1 -72 4 -85 19 -88 15 -3 17 6 17
91 0 78 -3 94 -15 94 -9 0 -17 -3 -19 -6z"/>
<path d="M1555 1013 c-26 -7 -44 -33 -39 -57 5 -27 13 -33 59 -48 24 -8 41
-20 43 -32 3 -16 -2 -18 -49 -15 -60 5 -77 -13 -27 -27 47 -13 86 -6 103 19
24 37 9 64 -46 82 -27 9 -49 20 -49 25 0 19 30 31 64 24 40 -7 49 8 17 26 -20
10 -42 11 -76 3z"/>
<path d="M1726 1003 c-52 -27 -58 -115 -9 -153 30 -23 90 -27 118 -7 24 18 11
41 -15 27 -45 -24 -90 -3 -102 46 -11 44 51 85 96 62 30 -16 43 7 14 26 -28
18 -66 18 -102 -1z"/>
<path d="M1902 927 c-35 -79 -39 -93 -24 -96 9 -2 18 2 20 8 17 50 107 48 125
-3 1 -4 10 -7 19 -5 15 3 11 17 -24 95 -28 60 -47 90 -59 91 -12 1 -28 -24
-57 -90z m75 8 c11 -34 11 -35 -18 -35 -33 0 -32 -2 -18 39 14 40 23 39 36 -4z"/>
<path d="M763 999 c-16 -20 -84 -171 -79 -176 2 -3 12 7 21 21 15 22 25 26 65
26 40 0 50 -4 65 -26 33 -51 25 -15 -17 76 -35 73 -46 90 -55 79z m43 -108
c-4 -6 -42 -7 -68 -2 -11 2 0 41 18 69 l17 26 19 -43 c10 -23 16 -46 14 -50z"/>
<path d="M550 910 l0 -90 60 0 c33 0 60 4 60 8 0 5 -21 8 -47 8 l-48 0 -3 82
c-4 112 -22 105 -22 -8z"/>
<path d="M1784 792 c3 -5 -4 -18 -14 -30 -22 -24 -26 -42 -8 -42 6 0 8 3 5 6
-4 4 2 19 13 34 23 32 25 40 9 40 -5 0 -8 -4 -5 -8z"/>
<path d="M1824 786 c-3 -8 -4 -23 -2 -33 3 -11 6 -6 9 15 6 34 2 42 -7 18z"/>
<path d="M2007 765 c-14 -29 -14 -33 -1 -28 8 3 13 8 10 11 -3 2 -1 13 5 24 6
11 9 22 7 24 -3 2 -12 -12 -21 -31z"/>
<path d="M551 767 c-9 -25 3 -96 23 -134 33 -65 90 -97 192 -111 79 -11 158 5
221 44 53 33 62 57 35 92 l-18 24 -30 -25 c-41 -35 -124 -60 -176 -54 -108 12
-151 59 -157 173 -1 6 -19 11 -42 11 -32 0 -42 -5 -48 -20z"/>
<path d="M1571 774 c0 -11 3 -14 6 -6 3 7 2 16 -1 19 -3 4 -6 -2 -5 -13z"/>
<path d="M1652 760 c0 -19 2 -27 5 -17 2 9 2 25 0 35 -3 9 -5 1 -5 -18z"/>
<path d="M1892 760 c0 -19 2 -27 5 -17 2 9 2 25 0 35 -3 9 -5 1 -5 -18z"/>
<path d="M1940 777 c0 -9 -7 -20 -16 -25 -14 -8 -14 -10 -1 -15 10 -4 17 2 22
20 3 14 4 28 0 31 -3 3 -5 -2 -5 -11z"/>
<path d="M1615 760 c-3 -5 -1 -10 4 -10 6 0 11 5 11 10 0 6 -2 10 -4 10 -3 0
-8 -4 -11 -10z"/>
<path d="M1690 751 c-10 -20 4 -41 17 -27 4 3 1 6 -6 6 -9 0 -9 5 -1 20 6 11
8 20 6 20 -3 0 -10 -9 -16 -19z"/>
<path d="M2036 751 c-3 -5 1 -11 9 -14 9 -4 12 -1 8 9 -6 16 -10 17 -17 5z"/>
<path d="M1570 739 c0 -5 5 -7 10 -4 6 3 10 8 10 11 0 2 -4 4 -10 4 -5 0 -10
-5 -10 -11z"/>
<path d="M1965 740 c3 -5 8 -10 11 -10 2 0 4 5 4 10 0 6 -5 10 -11 10 -5 0 -7
-4 -4 -10z"/>
<path d="M1828 723 c7 -3 16 -2 19 1 4 3 -2 6 -13 5 -11 0 -14 -3 -6 -6z"/>
</g>
</svg>
